<svg width="57" height="49" viewBox="0 0 57 49" fill="none" xmlns="http://www.w3.org/2000/svg">
<g filter="url(#filter0_d)">
<path d="M22.2925 4.70236L14.7239 12.2998H6.04167C4.91365 12.2998 4 13.2171 4 14.3497V26.6491C4 27.7809 4.91365 28.699 6.04167 28.699H14.7239L22.2925 36.2965C23.5711 37.5803 25.7778 36.6783 25.7778 34.847V6.15181C25.7778 4.31886 23.5694 3.42032 22.2925 4.70236ZM42.1409 0.339484C41.1907 -0.286591 39.9138 -0.0226655 39.2902 0.933102C38.6658 1.88716 38.9312 3.16921 39.8814 3.79528C45.519 7.50988 48.8835 13.7544 48.8835 20.5003C48.8835 27.2462 45.519 33.4907 39.8814 37.2053C38.9312 37.8305 38.6658 39.1134 39.2902 40.0666C39.8891 40.9814 41.1558 41.3102 42.1409 40.6602C48.9396 36.1795 53 28.6418 53 20.4994C53 12.357 48.9396 4.82023 42.1409 0.339484ZM44.8333 20.4994C44.8333 15.0732 42.106 10.0842 37.5369 7.15456C36.585 6.54471 35.3226 6.82828 34.7194 7.79174C34.1163 8.75519 34.3979 10.0304 35.3498 10.6411C38.7313 12.8097 40.75 16.4944 40.75 20.4994C40.75 24.5044 38.7313 28.1891 35.3498 30.3578C34.3979 30.9676 34.1163 32.2428 34.7194 33.2071C35.2732 34.092 36.5161 34.5003 37.5369 33.8443C42.106 30.9146 44.8333 25.9266 44.8333 20.4994ZM32.773 13.9338C31.7879 13.3931 30.5451 13.7493 29.9989 14.7409C29.4553 15.7326 29.8152 16.9787 30.8028 17.5262C31.9011 18.1318 32.5833 19.2721 32.5833 20.4994C32.5833 21.7277 31.9011 22.8671 30.8037 23.4726C29.816 24.0201 29.4562 25.2663 29.9998 26.258C30.5468 27.2539 31.7905 27.6075 32.7739 27.0651C35.1754 25.7369 36.6675 23.2215 36.6675 20.4986C36.6675 17.7756 35.1754 15.2611 32.773 13.9338Z" fill="black"/>
</g>
<defs>
<filter id="filter0_d" x="0" y="0" width="57" height="49" filterUnits="userSpaceOnUse" color-interpolation-filters="sRGB">
<feFlood flood-opacity="0" result="BackgroundImageFix"/>
<feColorMatrix in="SourceAlpha" type="matrix" values="0 0 0 0 0 0 0 0 0 0 0 0 0 0 0 0 0 0 127 0"/>
<feOffset dy="4"/>
<feGaussianBlur stdDeviation="2"/>
<feColorMatrix type="matrix" values="0 0 0 0 0 0 0 0 0 0 0 0 0 0 0 0 0 0 0.25 0"/>
<feBlend mode="normal" in2="BackgroundImageFix" result="effect1_dropShadow"/>
<feBlend mode="normal" in="SourceGraphic" in2="effect1_dropShadow" result="shape"/>
</filter>
</defs>
</svg>
